<svg width="770" height="1038" viewBox="0 0 770 1038" fill="none" xmlns="http://www.w3.org/2000/svg">
<path d="M272.079 158.553H199.579M689.079 450.053C645.73 378.392 632.324 330.363 578.079 266.553C537.897 219.286 457.579 158.553 457.579 158.553L482.579 113.553L607.079 80.0529L596.579 74.5529C596.579 74.5529 571.85 59.2265 554.579 52.5529C535.804 45.2986 504.579 40.0529 504.579 40.0529C504.579 40.0529 458.303 12.7737 425.579 12.0529C394.5 11.3683 375.236 17.2559 349.079 34.0529C323.931 50.2015 314.032 65.9722 298.579 91.5529C284.03 115.637 272.079 158.553 272.079 158.553M339.579 444.486C339.579 444.486 307.534 393.212 291.579 358.053C281.179 335.137 273.745 322.571 268.079 298.053C266.887 292.897 265.948 288.105 265.216 283.544C261.782 262.149 262.919 245.845 264.079 221.053C265.228 196.473 272.079 158.553 272.079 158.553M457.579 158.553H689.079C689.079 158.553 689.079 336.215 689.079 450.053M689.079 450.053C724.372 524.892 738.535 571.265 751.079 653.053C762.859 729.869 754.579 850.553 754.579 850.553C754.579 850.553 625.246 850.553 545.579 850.553M689.079 450.053C678.249 512.927 661.346 611.053 661.346 611.053M661.346 611.053L658.504 627.553C658.504 627.553 654.171 647.26 650.079 659.053C620.579 744.053 611.079 765.553 545.579 850.553M545.579 850.553C497.579 903.053 523.229 881.609 472.576 931.553M12.0786 426.053C12.0786 426.053 11.9018 440.682 12.0786 450.053C13.6451 533.103 23.6452 580.826 51.5786 659.053C76.6788 729.346 94.5368 774.883 137.079 827.364C143.202 834.919 149.837 842.617 157.079 850.553C183.907 879.956 205.755 903.089 233.579 931.553C294.079 987.053 353.579 1023.55 353.579 1023.55C353.579 1023.55 421.922 981.497 472.576 931.553M472.576 931.553C472.576 812.834 472.576 627.553 472.576 627.553M472.576 627.553H658.504M472.576 627.553H379.079M233.579 931.553C233.579 812.834 233.579 627.553 233.579 627.553H379.079M475.079 531.553C475.079 478.81 432.098 436.053 379.079 436.053M475.079 531.553H379.079M379.079 627.553C422.32 627.553 458.885 598.779 470.9 559.553C473.617 550.683 475.079 541.279 475.079 531.553M379.079 627.553C326.059 627.553 283.079 584.296 283.079 531.553M283.079 531.553H379.079M379.079 436.053C364.998 436.053 351.626 439.068 339.579 444.486C306.262 459.467 283.079 492.817 283.079 531.553M379.079 436.053V531.553M379.079 436.053V358.053M379.079 311.553V358.053M379.079 358.053H330.079M379.079 358.053H425.579M75.0786 158.553H12.0786L12.0786 283.553M75.0786 158.553V260.553M75.0786 158.553H138.579M138.579 158.553V260.553M138.579 158.553H199.579M199.579 158.553V260.553M470.9 559.553C470.9 559.553 535.154 585.441 578.079 596.053C610.154 603.983 661.346 611.053 661.346 611.053M137.079 555.053V523.053M137.079 555.053C137.079 555.053 195.711 546.488 222.579 523.053C253.986 495.657 267.079 426.053 267.079 426.053C267.079 426.053 213.612 431.083 187.079 450.053C158.969 470.149 137.079 523.053 137.079 523.053M137.079 555.053C137.079 555.053 82.4689 545.134 57.0786 523.053C25.5685 495.65 12.0786 426.053 12.0786 426.053M137.079 555.053V827.364M137.079 523.053C137.079 523.053 116.975 470.209 89.5786 450.053C64.0581 431.276 12.0786 426.053 12.0786 426.053M12.0786 426.053L12.0786 283.553M138.472 412.544V380.544M12.0786 283.553C12.0786 283.553 26.9624 353.141 58.4725 380.544C83.8629 402.624 138.472 412.544 138.472 412.544C138.472 412.544 197.105 403.979 223.973 380.544C255.38 353.148 265.216 283.544 265.216 283.544M138.472 380.544C138.472 380.544 160.363 327.64 188.473 307.544C215.006 288.574 265.216 283.544 265.216 283.544M138.472 380.544C138.472 380.544 118.368 327.7 90.9725 307.544C65.452 288.767 12.0786 283.553 12.0786 283.553" stroke="black" stroke-width="24"/>
</svg>
